<svg width="24" height="24" viewBox="0 0 24 24" fill="none" xmlns="http://www.w3.org/2000/svg">
<path d="M14.6332 6.23485C14.5589 6.1604 14.4707 6.10134 14.3736 6.06104C14.2765 6.02074 14.1723 6 14.0672 6C13.9621 6 13.8579 6.02074 13.7608 6.06104C13.6637 6.10134 13.5755 6.1604 13.5012 6.23485L8.18702 11.5491C8.12773 11.6082 8.0807 11.6785 8.04861 11.7559C8.01652 11.8332 8 11.9162 8 11.9999C8 12.0837 8.01652 12.1666 8.04861 12.244C8.0807 12.3213 8.12773 12.3916 8.18702 12.4508L13.5012 17.765C13.8146 18.0783 14.3198 18.0783 14.6332 17.765C14.9465 17.4516 14.9465 16.9464 14.6332 16.6331L10.0032 11.9967L14.6395 7.36036C14.9465 7.0534 14.9465 6.5418 14.6332 6.23485Z" fill="#9C9C9C"/>
</svg>
